<?xml version="1.0" ?><svg xmlns="http://www.w3.org/2000/svg" id="Layer_1" data-name="Layer 1" viewBox="0 0 128 128"><defs><style>.cls-1{fill:#1786c4;}.cls-2{fill:#3a5062;}</style></defs><title/><path class="cls-1" d="M75.41705,54.90442h-.00146a6.03424,6.03424,0,0,0-4.30011,1.77972L60.12439,67.67377l-3.8985-3.897a6.0808,6.0808,0,0,0-8.59735,8.60175l8.20007,8.19568a6.07952,6.07952,0,0,0,8.59589-.00293L79.71429,65.28143a6.07834,6.07834,0,0,0-4.29724-10.377Z"/><path class="cls-2" d="M115.75909,44.72742a30.07751,30.07751,0,0,1-8.09778-1.10565A20.84727,20.84727,0,0,1,92.93323,23.4903,8.89,8.89,0,0,0,89.035,16.13416L68.99139,2.53351a8.89036,8.89036,0,0,0-9.983,0L38.965,16.13416a8.89019,8.89019,0,0,0-3.89838,7.35614A20.84711,20.84711,0,0,1,20.33868,43.62177,30.07831,30.07831,0,0,1,12.241,44.72742,4.98041,4.98041,0,0,0,7.4317,50.7132l9.32568,45.44495a11.80934,11.80934,0,0,0,3.51837,6.313c13.17017,12.1698,30.99335,20.29529,39.22052,23.64569a11.92607,11.92607,0,0,0,9.00763,0c8.22717-3.3504,26.05017-11.47589,39.22015-23.64569a11.80913,11.80913,0,0,0,3.51849-6.313L120.5683,50.7132A4.9804,4.9804,0,0,0,115.75909,44.72742ZM64.00012,97.549a28.92023,28.92023,0,1,1,28.92-28.92023A28.92042,28.92042,0,0,1,64.00012,97.549Z"/></svg>